<svg width="27" height="22" viewBox="0 0 27 22" fill="none" xmlns="http://www.w3.org/2000/svg">
<path d="M13.4904 0C13.3456 0.00491178 13.2057 0.0540152 13.0886 0.140937L0.257981 10.4534C0.117885 10.5689 0.0272694 10.7352 0.00522494 10.9173C-0.0168196 11.0994 0.0314283 11.2831 0.139803 11.4297C0.257537 11.5676 0.422044 11.6551 0.600447 11.6749C0.778849 11.6947 0.958003 11.6451 1.1021 11.5363L13.4904 1.5675L25.899 11.5363C26.0401 11.6502 26.2198 11.7025 26.3987 11.6815C26.5775 11.6606 26.7409 11.5681 26.8529 11.4245C26.9648 11.2809 27.0161 11.098 26.9955 10.9158C26.975 10.7337 26.8842 10.5674 26.7431 10.4534L13.9125 0.140937C13.7889 0.051819 13.6418 0.00270224 13.4904 0ZM5.04921 9.25031L3.69862 10.3331V21.3125C3.69862 21.4948 3.76977 21.6697 3.89641 21.7986C4.02305 21.9276 4.19482 22 4.37392 22H10.4516C10.6307 22 10.8025 21.9276 10.9291 21.7986C11.0557 21.6697 11.1269 21.4948 11.1269 21.3125V15.125H15.854V21.3125C15.854 21.4948 15.9251 21.6697 16.0518 21.7986C16.1784 21.9276 16.3502 22 16.5293 22H22.6069C22.786 22 22.9578 21.9276 23.0844 21.7986C23.2111 21.6697 23.2822 21.4948 23.2822 21.3125V10.3331L21.9316 9.25031V20.625H17.2046V14.4375C17.2046 14.2552 17.1334 14.0803 17.0068 13.9514C16.8801 13.8224 16.7084 13.75 16.5293 13.75H10.4516C10.2725 13.75 10.1007 13.8224 9.97408 13.9514C9.84744 14.0803 9.77629 14.2552 9.77629 14.4375V20.625H5.04921V9.25031Z" fill="#888888"/>
</svg>
