<svg width="86" height="86" viewBox="0 0 86 86" fill="none" xmlns="http://www.w3.org/2000/svg">
<rect x="0.424805" y="0.512695" width="84.9744" height="84.9744" rx="42.4872" fill="url(#paint0_radial_30_1588)"/>
<rect x="0.424805" y="0.512695" width="84.9744" height="84.9744" rx="42.4872" fill="url(#paint1_radial_30_1588)"/>
<path d="M33.27 42.7016C33.27 37.5427 37.4509 33.3595 42.6098 33.3595C47.7686 33.3595 51.9518 37.5427 51.9518 42.7016C51.9518 47.8604 47.7686 52.0436 42.6098 52.0436C37.4509 52.0436 33.27 47.8604 33.27 42.7016ZM28.2199 42.7016C28.2199 50.6491 34.6622 57.0915 42.6098 57.0915C50.5573 57.0915 56.9997 50.6491 56.9997 42.7016C56.9997 34.754 50.5573 28.3117 42.6098 28.3117C34.6622 28.3117 28.2201 34.7536 28.2201 42.7016M54.2067 27.7411C54.2064 28.4062 54.4034 29.0565 54.7727 29.6096C55.142 30.1628 55.667 30.594 56.2814 30.8488C56.8958 31.1036 57.5719 31.1704 58.2243 31.041C58.8767 30.9115 59.476 30.5914 59.9465 30.1213C60.417 29.6512 60.7375 29.0521 60.8676 28.3998C60.9976 27.7475 60.9312 27.0714 60.677 26.4568C60.4227 25.8422 59.9919 25.3168 59.439 24.9471C58.8861 24.5773 58.236 24.3799 57.5709 24.3796H57.5696C56.678 24.38 55.8231 24.7343 55.1926 25.3645C54.5621 25.9948 54.2075 26.8496 54.2067 27.7411ZM31.2881 65.5125C28.5559 65.3881 27.0709 64.933 26.084 64.5485C24.7756 64.0391 23.8421 63.4325 22.8606 62.4523C21.8791 61.4722 21.2715 60.5395 20.7644 59.2312C20.3797 58.2447 19.9246 56.7592 19.8004 54.027C19.6645 51.0731 19.6374 50.1857 19.6374 42.702C19.6374 35.2183 19.6668 34.3334 19.8004 31.377C19.9248 28.6448 20.3833 27.1622 20.7644 26.1729C21.2738 24.8645 21.8804 23.931 22.8606 22.9495C23.8408 21.968 24.7734 21.3604 26.084 20.8533C27.0704 20.4686 28.5559 20.0135 31.2881 19.8893C34.2421 19.7534 35.1294 19.7263 42.6098 19.7263C50.0901 19.7263 50.9784 19.7552 53.9348 19.8897C56.667 20.0141 58.1496 20.4726 59.1389 20.8537C60.4473 21.3609 61.3808 21.9698 62.3623 22.9499C63.3438 23.9301 63.9491 24.865 64.4585 26.1733C64.8432 27.1598 65.2983 28.6453 65.4225 31.3775C65.5584 34.3339 65.5855 35.2188 65.5855 42.7025C65.5855 50.1862 65.5584 51.0711 65.4225 54.0275C65.2981 56.7597 64.8407 58.2447 64.4585 59.2316C63.9491 60.54 63.3425 61.4735 62.3623 62.4528C61.3822 63.432 60.4473 64.0396 59.1389 64.549C58.1525 64.9337 56.667 65.3888 53.9348 65.513C50.9808 65.6488 50.0935 65.676 42.6098 65.676C35.1261 65.676 34.2412 65.6488 31.2881 65.513M31.0561 14.8474C28.0728 14.9833 26.0342 15.4563 24.2539 16.1491C22.4113 16.8645 20.8494 17.8243 19.2897 19.3815C17.73 20.9387 16.7727 22.5009 16.0573 24.3457C15.3646 26.1272 14.8915 28.1646 14.7557 31.1479C14.6175 34.1359 14.5859 35.0912 14.5859 42.7016C14.5859 50.312 14.6175 51.2672 14.7557 54.2552C14.8915 57.2388 15.3646 59.276 16.0573 61.0574C16.7727 62.9 17.7302 64.4651 19.2897 66.0217C20.8492 67.5782 22.4091 68.5366 24.2539 69.254C26.0376 69.9468 28.0728 70.4198 31.0561 70.5557C34.0457 70.6916 34.9994 70.7254 42.6098 70.7254C50.2202 70.7254 51.1754 70.6938 54.1634 70.5557C57.147 70.4198 59.1842 69.9468 60.9656 69.254C62.8082 68.5366 64.3702 67.5789 65.9299 66.0217C67.4896 64.4644 68.4448 62.9 69.1622 61.0574C69.855 59.276 70.3303 57.2385 70.4639 54.2552C70.5998 51.265 70.6314 50.312 70.6314 42.7016C70.6314 35.0912 70.5998 34.1359 70.4639 31.1479C70.328 28.1644 69.855 26.126 69.1622 24.3457C68.4448 22.5031 67.4871 20.9412 65.9299 19.3815C64.3726 17.8218 62.8082 16.8645 60.9679 16.1491C59.1842 15.4563 57.1468 14.9811 54.1657 14.8474C51.1772 14.7109 50.2224 14.6777 42.6131 14.6777C35.0039 14.6777 34.0468 14.7093 31.0572 14.8474" fill="white"/>
<defs>
<radialGradient id="paint0_radial_30_1588" cx="0" cy="0" r="1" gradientUnits="userSpaceOnUse" gradientTransform="translate(5.92426 83.6255) scale(107.886)">
<stop offset="0.09" stop-color="#FA8F21"/>
<stop offset="0.78" stop-color="#D82D7E"/>
</radialGradient>
<radialGradient id="paint1_radial_30_1588" cx="0" cy="0" r="1" gradientUnits="userSpaceOnUse" gradientTransform="translate(59.2836 80.897) scale(94.9406)">
<stop offset="0.64" stop-color="#8C3AAA" stop-opacity="0"/>
<stop offset="1" stop-color="#8C3AAA"/>
</radialGradient>
</defs>
</svg>
