<svg width="86" height="86" viewBox="0 0 86 86" fill="none" xmlns="http://www.w3.org/2000/svg">
<rect x="0.212891" y="0.512695" width="84.9744" height="84.9744" rx="42.4872" fill="#0A66C2"/>
<g clip-path="url(#clip0_30_1587)">
<path d="M17.916 24.8282C17.916 23.2333 18.4742 21.9175 19.5906 20.8809C20.707 19.8442 22.1584 19.3259 23.9446 19.3259C25.699 19.3259 27.1184 19.8363 28.2029 20.857C29.3193 21.9096 29.8775 23.2812 29.8775 24.9717C29.8775 26.5028 29.3353 27.7787 28.2507 28.7994C27.1343 29.852 25.6671 30.3783 23.8489 30.3783H23.8011C22.0467 30.3783 20.6273 29.852 19.5428 28.7994C18.4583 27.7468 17.916 26.4231 17.916 24.8282ZM18.538 66.6934V34.7323H29.1598V66.6934H18.538ZM35.0449 66.6934H45.6666V48.8469C45.6666 47.7304 45.7943 46.8692 46.0494 46.2632C46.496 45.1787 47.1738 44.2616 48.0829 43.512C48.9919 42.7624 50.1323 42.3877 51.5039 42.3877C55.0764 42.3877 56.8626 44.7959 56.8626 49.6124V66.6934H67.4844V48.3684C67.4844 43.6476 66.368 40.0671 64.1352 37.627C61.9023 35.1868 58.9519 33.9668 55.2837 33.9668C51.1689 33.9668 47.9633 35.7371 45.6666 39.2777V39.3734H45.6188L45.6666 39.2777V34.7323H35.0449C35.1086 35.753 35.1405 38.9268 35.1405 44.2536C35.1405 49.5805 35.1086 57.0604 35.0449 66.6934Z" fill="white"/>
</g>
<defs>
<clipPath id="clip0_30_1587">
<rect x="17.916" y="18.2156" width="49.5684" height="49.5684" fill="white"/>
</clipPath>
</defs>
</svg>
