<svg width="39" height="39" viewBox="0 0 39 39" fill="none" xmlns="http://www.w3.org/2000/svg">
<path d="M31.462 30.875C32.6743 31.6161 33.3125 32.4568 33.3125 33.3125C33.3125 34.1682 32.6743 35.0089 31.462 35.75C30.2497 36.4911 28.506 37.1065 26.4063 37.5344C24.3065 37.9622 21.9246 38.1875 19.5 38.1875C17.0754 38.1875 14.6935 37.9622 12.5938 37.5344C10.494 37.1065 8.75033 36.4911 7.53802 35.75C6.32572 35.0089 5.6875 34.1682 5.6875 33.3125C5.6875 32.4568 6.32572 31.6161 7.53802 30.875" stroke="#FFB200" stroke-width="1.5" stroke-linecap="round"/>
<path d="M30.875 17.875C30.875 26.3386 21.9075 31.3023 19.8969 32.3089C19.6421 32.4364 19.3579 32.4364 19.1031 32.3089C17.0925 31.3023 8.125 26.3386 8.125 17.875C8.125 11.5928 13.2178 6.5 19.5 6.5C25.7822 6.5 30.875 11.5928 30.875 17.875Z" fill="#FFB200"/>
<circle cx="19.5" cy="17.875" r="4.875" fill="#F2F2F3"/>
</svg>
