<svg width="16" height="20" viewBox="0 0 16 20" fill="none" xmlns="http://www.w3.org/2000/svg">
<g clip-path="url(#clip0_34_2237)">
<path d="M15.0001 8.50005H11.7501V0.250045C11.7501 0.183741 11.7238 0.120153 11.6769 0.0732687C11.63 0.0263846 11.5664 4.53979e-05 11.5001 4.53979e-05H4.54636H4.52761C4.49049 -0.00405411 4.45291 0.000218104 4.41765 0.012548C4.38239 0.024878 4.35034 0.0449522 4.32386 0.0712954L0.823863 3.5713C0.80837 3.5875 0.794935 3.60555 0.783863 3.62505L0.776363 3.6388C0.766499 3.65814 0.759348 3.67875 0.755113 3.70005C0.751211 3.71641 0.749529 3.73323 0.750113 3.75005V15.75C0.750113 15.8163 0.776452 15.8799 0.823336 15.9268C0.87022 15.9737 0.933809 16 1.00011 16H11.5001C11.5664 16 11.63 15.9737 11.6769 15.9268C11.7238 15.8799 11.7501 15.8163 11.7501 15.75V14H15.0001C15.0664 14 15.13 13.9737 15.1769 13.9268C15.2238 13.8799 15.2501 13.8163 15.2501 13.75V8.75005C15.2501 8.68374 15.2238 8.62015 15.1769 8.57327C15.13 8.52638 15.0664 8.50005 15.0001 8.50005ZM4.25011 0.853795V3.50005H1.60386L4.25011 0.853795ZM11.2501 15.5H1.25011V4.00005H4.50011C4.56642 4.00005 4.63001 3.97371 4.67689 3.92682C4.72377 3.87994 4.75011 3.81635 4.75011 3.75005V0.500045H11.2501V8.50005H5.37511C5.30881 8.50005 5.24522 8.52638 5.19834 8.57327C5.15145 8.62015 5.12511 8.68374 5.12511 8.75005V13.75C5.12511 13.8163 5.15145 13.8799 5.19834 13.9268C5.24522 13.9737 5.30881 14 5.37511 14H11.2501V15.5ZM14.7501 13.5H5.62511V9.00005H14.7501V13.5Z" fill="#1C1C1C"/>
<path d="M9.875 12.5H10.5C10.8315 12.5 11.1495 12.3683 11.3839 12.1339C11.6183 11.8995 11.75 11.5815 11.75 11.25C11.75 10.9185 11.6183 10.6005 11.3839 10.3661C11.1495 10.1317 10.8315 10 10.5 10H9.875C9.8087 10 9.74511 10.0263 9.69822 10.0732C9.65134 10.1201 9.625 10.1837 9.625 10.25V12.25C9.625 12.3163 9.65134 12.3799 9.69822 12.4268C9.74511 12.4737 9.8087 12.5 9.875 12.5ZM10.125 10.5H10.5C10.6989 10.5 10.8897 10.579 11.0303 10.7197C11.171 10.8603 11.25 11.0511 11.25 11.25C11.25 11.4489 11.171 11.6397 11.0303 11.7803C10.8897 11.921 10.6989 12 10.5 12H10.125V10.5Z" fill="#1C1C1C"/>
<path d="M12.375 12.5C12.4413 12.5 12.5049 12.4737 12.5518 12.4268C12.5987 12.3799 12.625 12.3163 12.625 12.25V11.5H13.125C13.1913 11.5 13.2549 11.4737 13.3018 11.4268C13.3487 11.3799 13.375 11.3163 13.375 11.25C13.375 11.1837 13.3487 11.1201 13.3018 11.0732C13.2549 11.0263 13.1913 11 13.125 11H12.625V10.5H13.5C13.5663 10.5 13.6299 10.4737 13.6768 10.4268C13.7237 10.3799 13.75 10.3163 13.75 10.25C13.75 10.1837 13.7237 10.1201 13.6768 10.0732C13.6299 10.0263 13.5663 10 13.5 10H12.375C12.3087 10 12.2451 10.0263 12.1982 10.0732C12.1513 10.1201 12.125 10.1837 12.125 10.25V12.25C12.125 12.3163 12.1513 12.3799 12.1982 12.4268C12.2451 12.4737 12.3087 12.5 12.375 12.5Z" fill="#1C1C1C"/>
<path d="M7.625 12.5C7.6913 12.5 7.75489 12.4737 7.80178 12.4268C7.84866 12.3799 7.875 12.3163 7.875 12.25V11.75H8.375C8.60706 11.75 8.82962 11.6578 8.99372 11.4937C9.15781 11.3296 9.25 11.1071 9.25 10.875C9.25 10.6429 9.15781 10.4204 8.99372 10.2563C8.82962 10.0922 8.60706 10 8.375 10H7.625C7.5587 10 7.49511 10.0263 7.44822 10.0732C7.40134 10.1201 7.375 10.1837 7.375 10.25V12.25C7.375 12.3163 7.40134 12.3799 7.44822 12.4268C7.49511 12.4737 7.5587 12.5 7.625 12.5ZM8.75 10.875C8.7553 10.9255 8.74925 10.9766 8.73228 11.0246C8.71531 11.0725 8.68785 11.116 8.65191 11.1519C8.61597 11.1879 8.57246 11.2153 8.52455 11.2323C8.47664 11.2493 8.42555 11.2553 8.375 11.25H7.875V10.5H8.375C8.42555 10.4947 8.47664 10.5007 8.52455 10.5177C8.57246 10.5347 8.61597 10.5621 8.65191 10.5981C8.68785 10.634 8.71531 10.6775 8.73228 10.7254C8.74925 10.7734 8.7553 10.8245 8.75 10.875Z" fill="#1C1C1C"/>
<path d="M6.875 12.5C7.01307 12.5 7.125 12.3881 7.125 12.25C7.125 12.1119 7.01307 12 6.875 12C6.73693 12 6.625 12.1119 6.625 12.25C6.625 12.3881 6.73693 12.5 6.875 12.5Z" fill="#1C1C1C"/>
</g>
<defs>
<clipPath id="clip0_34_2237">
<rect width="16" height="20" fill="white"/>
</clipPath>
</defs>
</svg>
