<svg width="35" height="34" viewBox="0 0 35 34" fill="none" xmlns="http://www.w3.org/2000/svg">
<g clip-path="url(#clip0_97_1866)">
<path d="M17.3763 -0.000187126C12.9497 0.00414271 8.70548 1.76359 5.57412 4.89239C2.44275 8.0212 0.679837 12.264 0.671888 16.6906C0.667989 19.8328 1.55303 22.912 3.22479 25.5725L3.62343 26.206L1.93605 32.363L8.25415 30.7056L8.86575 31.0688C11.4387 32.5933 14.3747 33.3968 17.3654 33.3951C21.792 33.3915 26.0364 31.6322 29.1675 28.5031C32.2986 25.3741 34.0606 21.1308 34.0671 16.7043C34.0744 14.5107 33.6464 12.3375 32.8079 10.3104C31.9695 8.28342 30.7372 6.44287 29.1825 4.89538C27.6364 3.33878 25.7968 2.10454 23.7701 1.26418C21.7435 0.423817 19.5703 -0.00594067 17.3763 -0.000187126Z" fill="#FFB200"/>
<path fill-rule="evenodd" clip-rule="evenodd" d="M12.3507 8.29178C11.9739 7.45628 11.578 7.4399 11.2203 7.42625L10.2592 7.4126C10.0049 7.41912 9.75471 7.47829 9.52444 7.58638C9.29416 7.69447 9.0888 7.84913 8.92131 8.04058C8.35379 8.57747 7.90434 9.22669 7.6016 9.94687C7.29886 10.6671 7.14947 11.4424 7.16295 12.2235C7.16295 14.6809 8.96226 17.0781 9.21346 17.4112C9.46465 17.7443 12.6865 22.9839 17.7923 24.9962C22.0326 26.6672 22.8954 26.3368 23.8155 26.2522C24.7357 26.1676 26.7862 25.0372 27.2039 23.8659C27.6217 22.6945 27.6217 21.6816 27.4961 21.4795C27.3705 21.2775 27.0374 21.1437 26.535 20.8925C26.0326 20.6413 23.5643 19.429 23.1056 19.2542C22.6469 19.0795 22.3111 19.0031 21.9752 19.5054C21.6394 20.0078 20.6783 21.1437 20.3862 21.474C20.094 21.8044 19.8019 21.8508 19.294 21.5996C17.8137 21.0101 16.4473 20.1675 15.2558 19.1095C14.1595 18.0948 13.2191 16.9235 12.4653 15.6338C12.1705 15.1314 12.4326 14.8583 12.6838 14.6099C12.935 14.3614 13.1862 14.0228 13.4374 13.7307C13.6441 13.4768 13.8133 13.1945 13.9397 12.8925C14.0064 12.754 14.0376 12.6012 14.0305 12.4477C14.0233 12.2942 13.9781 12.1449 13.8988 12.0133C13.7732 11.7621 12.8066 9.28291 12.3507 8.28632" fill="white"/>
</g>
<defs>
<clipPath id="clip0_97_1866">
<rect width="33.3953" height="33.3953" fill="white" transform="translate(0.671875 -0.00012207)"/>
</clipPath>
</defs>
</svg>
